<svg xmlns="http://www.w3.org/2000/svg" version="1.1" xmlns:xlink="http://www.w3.org/1999/xlink" xmlns:svgjs="http://svgjs.dev/svgjs" width="1000" height="1000" viewBox="0 0 1000 1000"><rect width="1000" height="1000" fill="#1e75d7"></rect><g transform="matrix(0.7,0,0,0.7,150,106.25)"><svg viewBox="0 0 320 360" data-background-color="#1e75d7" preserveAspectRatio="xMidYMid meet" height="1125" width="1000" xmlns="http://www.w3.org/2000/svg" xmlns:xlink="http://www.w3.org/1999/xlink"><g id="tight-bounds" transform="matrix(1,0,0,1,0,0)"><svg viewBox="0 0 320 360" height="360" width="320"><g><svg></svg></g><g><svg viewBox="0 0 320 360" height="360" width="320"><g><path xmlns="http://www.w3.org/2000/svg" d="M297.491 100.645c-12.426-21.51-112.674-79.355-137.491-79.355-24.817 0-125.028 57.845-137.491 79.355-11.591 20.02-11.591 138.726 0 158.746 12.463 21.474 112.674 79.319 137.491 79.319 24.817 0 125.064-57.845 137.491-79.355 11.591-20.02 11.591-138.69 0-158.71zM309.481 93.705c-14.461-24.998-119.469-86.295-149.481-86.295-30.012 0-135.02 61.297-149.481 86.295-14.025 24.199-14.025 148.391 0 172.59 14.461 24.998 119.469 86.295 149.481 86.295 30.012 0 135.02-61.297 149.481-86.259 14.025-24.235 14.025-148.427 0-172.626zM300.906 261.353c-12.753 22.055-115.472 81.317-140.906 81.318-25.434 0-128.153-59.298-140.906-81.354-11.881-20.529-11.881-142.178 0-162.707 12.753-22.019 115.472-81.281 140.906-81.281 25.434 0 128.153 59.298 140.906 81.318 11.881 20.529 11.881 142.178 0 162.706z" fill="#ffffff" fill-rule="nonzero" stroke="none" stroke-width="1" stroke-linecap="butt" stroke-linejoin="miter" stroke-miterlimit="10" stroke-dasharray="" stroke-dashoffset="0" font-family="none" font-weight="none" font-size="none" text-anchor="none" style="mix-blend-mode: normal" data-fill-palette-color="tertiary"></path></g><g transform="matrix(1,0,0,1,48,142.4416453948532)"><svg viewBox="0 0 224 75.11670921029362" height="75.11670921029362" width="224"><g><svg viewBox="0 0 362.23889739130436 121.47407999999999" height="75.11670921029362" width="224"><g transform="matrix(1,0,0,1,138.23889739130433,25.229793623188407)"><svg viewBox="0 0 224 71.01449275362317" height="71.01449275362317" width="224"><g><svg viewBox="0 0 224 71.01449275362317" height="71.01449275362317" width="224"><g><svg viewBox="0 0 224 71.01449275362317" height="71.01449275362317" width="224"><g transform="matrix(1,0,0,1,0,0)"><svg width="224" viewBox="3.450000047683716 -43.25 137.99000549316406 43.75" height="71.01449275362317" data-palette-color="#1e75d7"><path d="M29.05-8.25L30.85-2.3Q31-1.8 31-1.55L31-1.55Q31-0.55 30.2-0.03 29.4 0.5 28.2 0.5L28.2 0.5Q27.35 0.5 26.7 0.13 26.05-0.25 25.85-0.9L25.85-0.9Q24.65-4.95 23.75-8.25L23.75-8.25 10.85-8.3 8.65-1.1Q8.2 0.45 6.25 0.45L6.25 0.45Q5.15 0.45 4.3-0.13 3.45-0.7 3.45-1.6L3.45-1.6Q3.45-1.9 3.6-2.35L3.6-2.35Q8.6-17.3 11.25-25.35L11.25-25.35 12.65-29.7Q13.75-32.9 14.85-34.23 15.95-35.55 17.7-35.55L17.7-35.55Q19.35-35.55 20.38-34.35 21.4-33.15 22.35-30.2L22.35-30.2Q24.75-22.65 27.65-12.95L27.65-12.95 29.05-12.95Q30.05-12.95 30.58-12.33 31.1-11.7 31.1-10.6L31.1-10.6Q31.1-8.25 29.45-8.25L29.45-8.25 29.05-8.25ZM12.35-13.1L22.4-13 22.1-14.15Q20.15-21.05 19-24.85L19-24.85Q18.85-25.3 18.5-26.5 18.15-27.7 17.93-28.2 17.7-28.7 17.5-28.7L17.5-28.7Q17.25-28.7 17.03-28.13 16.8-27.55 16.4-26.1L16.4-26.1Q16.35-25.85 16.25-25.6 16.15-25.35 16.05-25L16.05-25Q15.85-24.3 15.7-23.95L15.7-23.95Q15.15-22.2 14.35-19.63 13.55-17.05 12.35-13.1L12.35-13.1ZM43.1-27.55Q41.55-27.55 40.55-28.58 39.55-29.6 39.55-31.15L39.55-31.15Q39.55-32.65 40.57-33.65 41.6-34.65 43.2-34.65L43.2-34.65Q44.8-34.65 45.77-33.7 46.75-32.75 46.75-31.2L46.75-31.2Q46.75-29.65 45.72-28.6 44.7-27.55 43.1-27.55L43.1-27.55ZM42.4-0.3Q41.25-0.3 40.55-0.85 39.85-1.4 39.85-2.4L39.85-2.4 40.35-22.7Q40.35-23.7 41.05-24.28 41.75-24.85 42.85-24.85L42.85-24.85Q43.95-24.85 44.67-24.25 45.4-23.65 45.4-22.65L45.4-22.65 44.9-2.35Q44.85-1.35 44.17-0.83 43.5-0.3 42.4-0.3L42.4-0.3ZM66.15 0.3Q62.5 0.3 59.52-1.18 56.55-2.65 54.82-5.58 53.1-8.5 53.1-12.7L53.1-12.7Q53.1-16.6 54.7-19.5 56.3-22.4 59.25-23.95 62.2-25.5 66.15-25.5L66.15-25.5Q68.7-25.5 70.6-24.8 72.5-24.1 73.7-23L73.7-23Q74-35.05 74.45-41.3L74.45-41.3Q74.55-42.15 75.22-42.7 75.9-43.25 76.9-43.25L76.9-43.25Q78.05-43.25 78.77-42.65 79.5-42.05 79.45-41.1L79.45-41.1Q79.1-37.8 78.82-29 78.55-20.2 78.55-13.3L78.55-13.3Q78.55-6.65 78.85-5.45L78.85-5.45Q79.4-3.4 80.35-2.9L80.35-2.9Q80.55-2.8 80.55-2.2L80.55-2.2Q80.55-1.3 79.72-0.55 78.9 0.2 77.9 0.2L77.9 0.2Q77.05 0.2 76.55-0.2L76.55-0.2Q74.8-1.2 74.2-3.7L74.2-3.7Q72.95-1.85 70.85-0.78 68.75 0.3 66.15 0.3L66.15 0.3ZM66.1-3.85Q68-3.85 69.72-4.75 71.45-5.65 72.5-7.13 73.55-8.6 73.55-10.25L73.55-10.25Q73.55-12.55 73.6-13.85L73.6-13.85 73.65-17.85Q72.9-19.15 70.82-20.28 68.75-21.4 66.3-21.4L66.3-21.4Q62.5-21.4 60.27-19.05 58.05-16.7 58.05-12.55L58.05-12.55Q58.05-9.7 59.22-7.73 60.4-5.75 62.22-4.8 64.05-3.85 66.1-3.85L66.1-3.85ZM108.99-4Q109.74-3.9 110.17-3.5 110.59-3.1 110.59-2.15L110.59-2.15Q110.59-1.25 110.14-0.65 109.69-0.05 108.89-0.05L108.89-0.05Q106.84-0.05 105.82-0.65 104.79-1.25 103.94-2.9L103.94-2.9Q101.84 0.5 96.14 0.5L96.14 0.5Q90.34 0.5 87.59-3.03 84.84-6.55 84.84-11.8L84.84-11.8Q84.84-15.3 86.24-18.25 87.64-21.2 90.34-22.95 93.04-24.7 96.64-24.7L96.64-24.7Q98.94-24.7 100.72-23.8 102.49-22.9 103.39-21.35L103.39-21.35 103.54-22.6Q103.74-24.4 105.69-24.4L105.69-24.4Q106.99-24.4 107.54-23.83 108.09-23.25 107.99-22.4L107.99-22.4Q107.49-18.65 107.39-16.75L107.39-16.75Q107.24-14.95 107.24-12.05L107.24-12.05 107.24-8.75Q107.24-6.15 107.52-5.15 107.79-4.15 108.99-4L108.99-4ZM102.34-8.75Q102.39-11 102.39-14.9L102.39-14.9Q102.39-16.95 101.52-18.25 100.64-19.55 99.37-20.15 98.09-20.75 96.79-20.75L96.79-20.75Q94.54-20.75 92.97-19.43 91.39-18.1 90.62-16.05 89.84-14 89.84-11.8L89.84-11.8Q89.84-8.45 91.42-5.98 92.99-3.5 96.34-3.5L96.34-3.5Q98.99-3.5 100.64-4.85 102.29-6.2 102.34-8.75L102.34-8.75ZM128.29 0.1Q122.39 0.1 118.67-3.03 114.94-6.15 114.94-12.4L114.94-12.4Q114.94-16.35 116.52-19.4 118.09-22.45 121.02-24.15 123.94-25.85 127.94-25.85L127.94-25.85Q131.84-25.85 134.92-24.2 137.99-22.55 139.72-19.48 141.44-16.4 141.44-12.3L141.44-12.3Q141.44-6.3 137.84-3.1 134.24 0.1 128.29 0.1L128.29 0.1ZM128.19-3.85Q131.89-3.85 134.19-6.03 136.49-8.2 136.49-12.4L136.49-12.4Q136.49-15.1 135.47-17.28 134.44-19.45 132.52-20.68 130.59-21.9 128.09-21.9L128.09-21.9Q124.39-21.9 122.17-19.33 119.94-16.75 119.94-12.45L119.94-12.45Q119.94-8.05 122.29-5.95 124.64-3.85 128.19-3.85L128.19-3.85Z" opacity="1" transform="matrix(1,0,0,1,0,0)" fill="#1e75d7" class="undefined-text-0" data-fill-palette-color="quaternary" id="text-0"></path></svg></g></svg></g></svg></g></svg></g><g><svg viewBox="0 0 121.47407999999999 121.47407999999999" height="121.47407999999999" width="121.47407999999999"><g><svg></svg></g><g id="icon-0"><svg viewBox="0 0 121.47407999999999 121.47407999999999" height="121.47407999999999" width="121.47407999999999"><g><rect width="110.45143199999998" height="110.45143199999998" x="5.511324000000002" y="5.511324000000002" fill="#ffffff" data-fill-palette-color="accent"></rect><rect width="110.45143199999998" height="110.45143199999998" x="11.022648" y="2.6645352591003757e-15" fill="#ffffff" opacity="0.5" data-fill-palette-color="accent"></rect></g><g transform="matrix(1,0,0,1,21.545401903889974,15.74664)"><svg viewBox="0 0 78.38327619222004 89.98079999999999" height="89.98079999999999" width="78.38327619222004"><g><svg xmlns="http://www.w3.org/2000/svg" xmlns:xlink="http://www.w3.org/1999/xlink" version="1.1" x="0" y="0" viewBox="10.100000381469727 5.199999809265137 78.4000015258789 90" enable-background="new 0 0 100 100" xml:space="preserve" height="89.98079999999999" width="78.38327619222004" class="icon-a-0" data-fill-palette-color="background" id="a-0"><polygon fill-rule="evenodd" clip-rule="evenodd" fill="#1e75d7" points="88.5,28.2 68.4,59.9 68.5,22.3 " data-fill-palette-color="background"></polygon><polygon fill-rule="evenodd" clip-rule="evenodd" fill="#1e75d7" points="49.8,5.2 67.2,38.5 34.7,19.6 " data-fill-palette-color="background"></polygon><polygon fill-rule="evenodd" clip-rule="evenodd" fill="#1e75d7" points="67.8,38.3 67.8,22.3 60.8,24.5 " data-fill-palette-color="background"></polygon><polygon fill-rule="evenodd" clip-rule="evenodd" fill="#1e75d7" points="88.2,73.2 50.6,71.7 83.2,52.9 " data-fill-palette-color="background"></polygon><polygon fill-rule="evenodd" clip-rule="evenodd" fill="#1e75d7" points="69.1,60.3 82.8,52.3 77.4,47.4 " data-fill-palette-color="background"></polygon><polygon fill-rule="evenodd" clip-rule="evenodd" fill="#1e75d7" points="48.7,95.2 31.5,61.9 63.9,80.9 " data-fill-palette-color="background"></polygon><polygon fill-rule="evenodd" clip-rule="evenodd" fill="#1e75d7" points="50.5,72.2 64.2,80.2 65.8,73.1 " data-fill-palette-color="background"></polygon><polygon fill-rule="evenodd" clip-rule="evenodd" fill="#1e75d7" points="10.1,72 30.5,40.4 30.1,78 " data-fill-palette-color="background"></polygon><polygon fill-rule="evenodd" clip-rule="evenodd" fill="#1e75d7" points="30.9,62.1 30.8,78 37.8,75.8 " data-fill-palette-color="background"></polygon><polygon fill-rule="evenodd" clip-rule="evenodd" fill="#1e75d7" points="11,27 48.5,28.9 15.8,47.3 " data-fill-palette-color="background"></polygon><polygon fill-rule="evenodd" clip-rule="evenodd" fill="#1e75d7" points="30,40.1 16.1,47.9 21.5,52.9 " data-fill-palette-color="background"></polygon><polygon fill-rule="evenodd" clip-rule="evenodd" fill="#1e75d7" points="48.2,28.3 34.5,20.2 32.9,27.4 " data-fill-palette-color="background"></polygon></svg></g></svg></g></svg></g></svg></g></svg></g></svg></g></svg></g><defs></defs></svg><rect width="320" height="360" fill="none" stroke="none" visibility="hidden"></rect></g></svg></g></svg>